<svg xmlns="http://www.w3.org/2000/svg" viewBox="0 0 3064.61 792.56"><defs><style>.cls-1,.cls-2{fill:#5aba4e;}.cls-2,.cls-4,.cls-7{font-size:55.42px;font-family:OpenSans-Bold, Open Sans;font-weight:700;letter-spacing:0.01em;}.cls-3,.cls-4{fill:#fff;}.cls-5{fill:#221028;}.cls-6,.cls-7{fill:#6e85b7;}</style></defs><g id="Layer_1" data-name="Layer 1"><path class="cls-1" d="M253.21,395.52c-3.18-2.42-9.16,1.14-12.12,3.14-.06,0,0,.16.06.14,3-.88,7.11-1.21,9.94.95s3.78,6.36,4.25,9.86a.06.06,0,0,0,.12,0C255.9,405.68,256.39,397.94,253.21,395.52Z" transform="translate(-37.69 1.12)"/><path class="cls-1" d="M75.74,361.24c13.64-5.06,25.32,1.7,27.67,3.21l2.23,1.37c20.76,12.91,41.13,31.25,41.24,34.38.18,5-2.81,11.23-5.64,10.32-1.52-.48-11,5-8.37,6.65s10.95,1.93,14.59,1.93c5.58,0,8.25-3,9.12-7.24,1.31-6.42-4.36.33-5.67-.5s-.58-6.16.74-7,8.63-1.95,8.38-4c-.83-6.74,7.35-14.44,13.3-15.82l32.7-11.4c13.37-6.29,22.78-12.46,14.7-21.18-13.09-14.11-54.95-35.19-71.63-35.54-14.45-.31-13.47,17.42-40.91,17.25-6.62,0-16-5.07-26-7.24s-28.91,3.5-28.91,3.5C51.43,339.26,75.74,361.24,75.74,361.24Z" transform="translate(-37.69 1.12)"/><path class="cls-1" d="M246.76,403.2a130.91,130.91,0,0,1-200.09,0,.75.75,0,0,0-1.25.82c17.78,38.64,56.45,63.32,101.3,63.32S230.23,442.66,248,404A.75.75,0,0,0,246.76,403.2Z" transform="translate(-37.69 1.12)"/><path class="cls-1" d="M54.13,399.26c.08,0,.13-.09.07-.13-3.3-2.2-10-6.15-13.56-3.92s-3.09,10.06-2.63,14a.07.07,0,0,0,.14,0c.56-3.48,1.64-7.65,4.83-9.65S50.82,398.19,54.13,399.26Z" transform="translate(-37.69 1.12)"/><text class="cls-2" transform="translate(256.37 356.42)">Happy</text><text class="cls-2" transform="translate(257.33 414.11)">Transport</text><text class="cls-2" transform="translate(256.37 469.07)">Bali</text></g><g id="Layer_2" data-name="Layer 2"><path class="cls-1" d="M1070.71,400.53c-4-3-11.42,1.42-15.1,3.92-.08.06,0,.19.06.17,3.7-1.1,8.86-1.51,12.4,1.18s4.71,7.94,5.29,12.29a.08.08,0,0,0,.16,0C1074.06,413.2,1074.67,403.55,1070.71,400.53Z" transform="translate(-37.69 1.12)"/><path class="cls-1" d="M849.51,357.81c17-6.31,31.56,2.12,34.49,4l2.78,1.7c25.87,16.1,51.26,38.95,51.4,42.85.22,6.24-3.5,14-7,12.87-1.9-.6-13.71,6.2-10.44,8.28s13.66,2.41,18.19,2.41c7,0,10.28-3.75,11.37-9,1.63-8-5.44.41-7.07-.63s-.72-7.68.92-8.72,10.76-2.43,10.45-5c-1-8.41,9.15-18,16.58-19.72l40.75-14.21c16.67-7.84,28.4-15.53,18.32-26.39C1013.91,328.67,961.73,302.4,941,302c-18-.39-16.8,21.72-51,21.51-8.26,0-20-6.32-32.46-9s-36,4.37-36,4.37C819.21,330.41,849.51,357.81,849.51,357.81Z" transform="translate(-37.69 1.12)"/><path class="cls-1" d="M1062.67,410.11C1032.48,445.58,987.82,468,938,468a163.36,163.36,0,0,1-124.7-57.93.94.94,0,0,0-1.56,1c22.17,48.16,70.36,78.93,126.26,78.93s104.09-30.77,126.26-78.93A.94.94,0,0,0,1062.67,410.11Z" transform="translate(-37.69 1.12)"/><path class="cls-1" d="M822.58,405.19a.09.09,0,0,0,.08-.16c-4.11-2.74-12.43-7.66-16.9-4.88s-3.85,12.54-3.28,17.49a.09.09,0,0,0,.18,0c.69-4.35,2-9.54,6-12S818.44,403.86,822.58,405.19Z" transform="translate(-37.69 1.12)"/></g><g id="Layer_3" data-name="Layer 3"><rect class="cls-1" x="1226.38" width="612" height="792"/><path class="cls-3" d="M1517.28,394.4c-3.18-2.42-9.16,1.14-12.11,3.14-.06,0,0,.16,0,.14,3-.88,7.11-1.21,9.94.95s3.78,6.36,4.25,9.86c0,.08.11.08.13,0C1520,404.57,1520.46,396.82,1517.28,394.4Z" transform="translate(-37.69 1.12)"/><path class="cls-3" d="M1339.81,360.12c13.64-5.06,25.32,1.7,27.67,3.21l2.23,1.37c20.76,12.91,41.13,31.25,41.24,34.38.18,5-2.81,11.23-5.63,10.32-1.53-.48-11,5-8.38,6.65s11,1.93,14.59,1.93c5.59,0,8.25-3,9.12-7.24,1.31-6.42-4.36.33-5.67-.5s-.58-6.16.74-7,8.63-1.95,8.38-4c-.82-6.74,7.35-14.44,13.31-15.82L1470.1,372c13.37-6.29,22.78-12.46,14.7-21.18-13.09-14.11-55-35.18-71.63-35.54-14.45-.31-13.47,17.42-40.91,17.25-6.62,0-16-5.07-26-7.24s-28.91,3.5-28.91,3.5C1315.5,338.14,1339.81,360.12,1339.81,360.12Z" transform="translate(-37.69 1.12)"/><path class="cls-3" d="M1510.83,402.09a130.93,130.93,0,0,1-200.09,0,.75.75,0,0,0-1.25.81c17.79,38.64,56.45,63.32,101.3,63.32s83.51-24.68,101.29-63.32A.75.75,0,0,0,1510.83,402.09Z" transform="translate(-37.69 1.12)"/><path class="cls-3" d="M1318.21,398.14a.07.07,0,0,0,.06-.13c-3.3-2.2-10-6.15-13.56-3.91s-3.09,10-2.63,14a.07.07,0,0,0,.14,0c.56-3.48,1.64-7.65,4.83-9.65S1314.89,397.07,1318.21,398.14Z" transform="translate(-37.69 1.12)"/><text class="cls-4" transform="translate(1520.44 355.3)">Happy</text><text class="cls-4" transform="translate(1521.4 412.99)">Transport</text><text class="cls-4" transform="translate(1520.44 467.95)">Bali</text></g><g id="Layer_4" data-name="Layer 4"><rect class="cls-5" x="1859.87" y="1.68" width="612" height="790.88"/><path class="cls-3" d="M2150.77,395.52c-3.18-2.42-9.16,1.14-12.11,3.14-.06,0,0,.16.05.14,3-.88,7.11-1.21,9.95.95s3.78,6.36,4.24,9.86a.07.07,0,0,0,.13,0C2153.46,405.68,2154,397.94,2150.77,395.52Z" transform="translate(-37.69 1.12)"/><path class="cls-3" d="M1973.3,361.24c13.65-5.06,25.33,1.7,27.67,3.21l2.23,1.37c20.76,12.91,41.14,31.25,41.25,34.38.17,5-2.81,11.23-5.64,10.32-1.53-.48-11,5-8.38,6.65s11,1.93,14.59,1.93c5.59,0,8.25-3,9.12-7.24,1.31-6.42-4.35.33-5.66-.5s-.58-6.16.73-7,8.63-1.95,8.38-4c-.82-6.74,7.35-14.44,13.31-15.82l32.69-11.4c13.37-6.29,22.79-12.46,14.7-21.18-13.09-14.11-54.95-35.19-71.62-35.54-14.46-.31-13.48,17.42-40.92,17.25-6.62,0-16-5.07-26-7.24s-28.91,3.5-28.91,3.5C1949,339.26,1973.3,361.24,1973.3,361.24Z" transform="translate(-37.69 1.12)"/><path class="cls-3" d="M2144.33,403.21a130.94,130.94,0,0,1-200.1,0,.75.75,0,0,0-1.25.81c17.79,38.64,56.45,63.32,101.3,63.32s83.51-24.68,101.3-63.32A.75.75,0,0,0,2144.33,403.21Z" transform="translate(-37.69 1.12)"/><path class="cls-3" d="M1951.7,399.26a.07.07,0,0,0,.06-.13c-3.3-2.2-10-6.15-13.55-3.91s-3.09,10-2.63,14a.07.07,0,0,0,.14,0c.55-3.48,1.63-7.65,4.83-9.65S1948.38,398.19,1951.7,399.26Z" transform="translate(-37.69 1.12)"/><text class="cls-4" transform="translate(2153.94 356.42)">Happy</text><text class="cls-4" transform="translate(2154.89 414.11)">Transport</text><text class="cls-4" transform="translate(2153.94 469.07)">Bali</text></g><g id="Layer_5" data-name="Layer 5"><path class="cls-6" d="M2781.21,395.52c-3.18-2.42-9.16,1.14-12.12,3.14-.06,0,0,.16.06.14,3-.88,7.11-1.21,9.94.95s3.78,6.36,4.25,9.86a.06.06,0,1,0,.12,0C2783.9,405.68,2784.39,397.94,2781.21,395.52Z" transform="translate(-37.69 1.12)"/><path class="cls-6" d="M2603.74,361.24c13.64-5.06,25.32,1.7,27.67,3.21l2.23,1.37c20.75,12.91,41.13,31.25,41.24,34.38.18,5-2.81,11.23-5.64,10.32-1.52-.48-11,5-8.37,6.65s11,1.93,14.59,1.93c5.58,0,8.25-3,9.12-7.24,1.31-6.42-4.36.33-5.67-.5s-.58-6.16.74-7,8.63-1.95,8.38-4c-.83-6.74,7.35-14.44,13.3-15.82l32.7-11.4c13.37-6.29,22.78-12.46,14.7-21.18-13.09-14.11-54.95-35.19-71.63-35.54-14.45-.31-13.47,17.42-40.91,17.25-6.62,0-16-5.07-26-7.24s-28.92,3.5-28.92,3.5C2579.43,339.26,2603.74,361.24,2603.74,361.24Z" transform="translate(-37.69 1.12)"/><path class="cls-6" d="M2774.76,403.2a130.91,130.91,0,0,1-200.09,0,.75.75,0,0,0-1.25.82c17.78,38.64,56.45,63.32,101.29,63.32S2758.23,442.66,2776,404A.75.75,0,0,0,2774.76,403.2Z" transform="translate(-37.69 1.12)"/><path class="cls-6" d="M2582.13,399.26a.07.07,0,0,0,.06-.13c-3.29-2.2-10-6.15-13.55-3.92s-3.09,10.06-2.63,14a.07.07,0,0,0,.14,0c.56-3.48,1.64-7.66,4.83-9.65S2578.82,398.19,2582.13,399.26Z" transform="translate(-37.69 1.12)"/><text class="cls-7" transform="translate(2784.37 356.42)">Happy</text><text class="cls-7" transform="translate(2785.33 414.11)">Transport</text><text class="cls-7" transform="translate(2784.37 469.07)">Bali</text></g></svg>