<svg xmlns="http://www.w3.org/2000/svg" viewBox="0 0 612 792"><defs><style>.cls-1{fill:#5aba4e;}</style></defs><g id="Layer_2" data-name="Layer 2"><path class="cls-1" d="M438.71,400.53c-4-3-11.42,1.42-15.1,3.92-.08.06,0,.19.06.17,3.7-1.1,8.86-1.51,12.4,1.18s4.71,7.94,5.29,12.29a.08.08,0,0,0,.16,0C442.06,413.2,442.67,403.55,438.71,400.53Z"/><path class="cls-1" d="M217.51,357.81c17-6.31,31.56,2.12,34.49,4l2.78,1.7c25.87,16.1,51.26,38.95,51.4,42.85.22,6.24-3.5,14-7,12.87-1.9-.6-13.71,6.2-10.44,8.28s13.66,2.41,18.19,2.41c7,0,10.28-3.75,11.37-9,1.63-8-5.44.41-7.07-.63s-.72-7.68.92-8.72,10.76-2.43,10.45-5c-1-8.41,9.15-18,16.58-19.72l40.75-14.21c16.67-7.84,28.4-15.53,18.32-26.39C381.91,328.67,329.73,302.4,309,302c-18-.39-16.8,21.72-51,21.51-8.26,0-20-6.32-32.46-9s-36,4.37-36,4.37C187.21,330.41,217.51,357.81,217.51,357.81Z"/><path class="cls-1" d="M430.67,410.11C400.48,445.58,355.82,468,306,468a163.36,163.36,0,0,1-124.7-57.93.94.94,0,0,0-1.56,1c22.17,48.16,70.36,78.93,126.26,78.93s104.09-30.77,126.26-78.93A.94.94,0,0,0,430.67,410.11Z"/><path class="cls-1" d="M190.58,405.19a.09.09,0,0,0,.08-.16c-4.11-2.74-12.43-7.66-16.9-4.88s-3.85,12.54-3.28,17.49a.09.09,0,0,0,.18,0c.69-4.35,2-9.54,6-12S186.44,403.86,190.58,405.19Z"/></g></svg>